<?xml version="1.0" encoding="UTF-8" standalone="no"?>
<!-- Created with Inkscape (http://www.inkscape.org/) -->

<svg
   xmlns:dc="http://purl.org/dc/elements/1.1/"
   xmlns:cc="http://creativecommons.org/ns#"
   xmlns:rdf="http://www.w3.org/1999/02/22-rdf-syntax-ns#"
   xmlns:svg="http://www.w3.org/2000/svg"
   xmlns="http://www.w3.org/2000/svg"
   xmlns:sodipodi="http://sodipodi.sourceforge.net/DTD/sodipodi-0.dtd"
   xmlns:inkscape="http://www.inkscape.org/namespaces/inkscape"
   width="445.65213"
   height="29.411264"
   viewBox="0 0 445.65213 29.411264"
   version="1.1"
   id="SVGRoot"
   inkscape:version="0.92.4 5da689c313, 2019-01-14"
   sodipodi:docname="sl-title.svg"
   inkscape:export-filename="/home/cannam/code/sv-website/images/sl-title.png"
   inkscape:export-xdpi="110.97789"
   inkscape:export-ydpi="110.97789">
  <defs
     id="defs1387" />
  <sodipodi:namedview
     id="base"
     pagecolor="#ffffff"
     bordercolor="#666666"
     borderopacity="1.0"
     inkscape:pageopacity="0.0"
     inkscape:pageshadow="2"
     inkscape:zoom="3.4133333"
     inkscape:cx="278.38504"
     inkscape:cy="113.85218"
     inkscape:document-units="px"
     inkscape:current-layer="text4524"
     showgrid="true"
     inkscape:window-width="2470"
     inkscape:window-height="1197"
     inkscape:window-x="1080"
     inkscape:window-y="346"
     inkscape:window-maximized="0"
     fit-margin-top="0"
     fit-margin-left="0"
     fit-margin-right="0"
     fit-margin-bottom="0">
    <inkscape:grid
       type="xygrid"
       id="grid835"
       originx="-0.073242199"
       originy="-0.31326613" />
  </sodipodi:namedview>
  <metadata
     id="metadata1390">
    <rdf:RDF>
      <cc:Work
         rdf:about="">
        <dc:format>image/svg+xml</dc:format>
        <dc:type
           rdf:resource="http://purl.org/dc/dcmitype/StillImage" />
        <dc:title />
      </cc:Work>
    </rdf:RDF>
  </metadata>
  <g
     inkscape:label="Layer 1"
     inkscape:groupmode="layer"
     id="layer1"
     transform="translate(-0.31086568,-3.1628202)">
    <g
       transform="matrix(1.6274215,0,0,1.6274215,0.08499095,-182.57491)"
       aria-label="SONIC VISUALISER"
       style="font-style:normal;font-variant:normal;font-weight:normal;font-stretch:normal;font-size:22.57777786px;line-height:125%;font-family:Korataki;-inkscape-font-specification:'Korataki, Normal';font-variant-ligatures:normal;font-variant-caps:normal;font-variant-numeric:normal;font-feature-settings:normal;text-align:start;letter-spacing:0px;word-spacing:0px;writing-mode:lr-tb;text-anchor:start;fill:#ef6a35;fill-opacity:0.98823529;stroke:none;stroke-width:0.26499999;stroke-linecap:butt;stroke-linejoin:miter;stroke-miterlimit:4;stroke-dasharray:none;stroke-opacity:1"
       id="text4524">
      <path
         inkscape:connector-curvature="0"
         d="m 25.516215,114.14016 v 4.19946 H 5.5800375 q -1.0385778,0 -1.0385778,0.65476 v 1.39982 q 0,0.65476 1.0385778,0.65476 H 20.661993 q 5.418667,0 5.418667,4.31235 v 2.46098 q 0,4.38009 -5.418667,4.38009 H 0.72581523 v -4.19947 H 20.661993 q 1.016,0 1.016,-0.63218 v -1.46755 q 0,-0.65476 -1.016,-0.65476 H 5.5800375 q -5.44124449,0 -5.44124449,-3.8608 v -2.8448 q 0,-4.40266 5.44124449,-4.40266 z"
         style="font-style:normal;font-variant:normal;font-weight:normal;font-stretch:normal;font-size:22.57777786px;font-family:Korataki;-inkscape-font-specification:'Korataki, Normal';font-variant-ligatures:normal;font-variant-caps:normal;font-variant-numeric:normal;font-feature-settings:normal;text-align:start;writing-mode:lr-tb;text-anchor:start;fill:#ef6a35;fill-opacity:0.98823529;stroke:none;stroke-width:0.26499999;stroke-miterlimit:4;stroke-dasharray:none;stroke-opacity:1"
         id="path4526" />
      <path
         inkscape:connector-curvature="0"
         d="m 35.089212,132.20238 q -6.795911,0 -6.795911,-5.73476 v -6.57013 q 0,-5.75733 6.795911,-5.75733 h 13.953067 q 6.795911,0 6.795911,5.75733 v 6.57013 q 0,5.73476 -6.795911,5.73476 z m 0,-13.86276 q -2.370667,0 -2.370667,1.55787 v 6.57013 q 0,1.53529 2.370667,1.53529 h 13.953067 q 2.370666,0 2.370666,-1.53529 v -6.57013 q 0,-1.55787 -2.370666,-1.55787 z"
         style="font-style:normal;font-variant:normal;font-weight:normal;font-stretch:normal;font-size:22.57777786px;font-family:Korataki;-inkscape-font-specification:'Korataki, Normal';font-variant-ligatures:normal;font-variant-caps:normal;font-variant-numeric:normal;font-feature-settings:normal;text-align:start;writing-mode:lr-tb;text-anchor:start;fill:#ef6a35;fill-opacity:0.98823529;stroke:none;stroke-width:0.26499999;stroke-miterlimit:4;stroke-dasharray:none;stroke-opacity:1"
         id="path4528" />
      <path
         inkscape:connector-curvature="0"
         d="m 65.185381,119.69429 q -0.474133,-0.56445 -1.174044,-0.94827 -0.677334,-0.4064 -1.399823,-0.4064 h -0.225777 v 13.86276 h -4.289778 v -18.06222 h 4.515555 q 1.806223,0 3.025423,0.58702 1.241777,0.58702 2.370666,1.85138 l 8.7376,10.06968 q 0.474134,0.54187 1.151467,0.94827 0.677333,0.4064 1.399822,0.4064 h 0.225778 v -13.86275 h 4.312356 v 18.06222 h -4.538134 q -1.873955,0 -3.183467,-0.6096 -1.286933,-0.6096 -2.393244,-1.94169 z"
         style="font-style:normal;font-variant:normal;font-weight:normal;font-stretch:normal;font-size:22.57777786px;font-family:Korataki;-inkscape-font-specification:'Korataki, Normal';font-variant-ligatures:normal;font-variant-caps:normal;font-variant-numeric:normal;font-feature-settings:normal;text-align:start;writing-mode:lr-tb;text-anchor:start;fill:#ef6a35;fill-opacity:0.98823529;stroke:none;stroke-width:0.26499999;stroke-miterlimit:4;stroke-dasharray:none;stroke-opacity:1"
         id="path4530" />
      <path
         inkscape:connector-curvature="0"
         d="m 86.092396,114.14016 h 4.402667 v 18.06222 h -4.402667 z"
         style="font-style:normal;font-variant:normal;font-weight:normal;font-stretch:normal;font-size:22.57777786px;font-family:Korataki;-inkscape-font-specification:'Korataki, Normal';font-variant-ligatures:normal;font-variant-caps:normal;font-variant-numeric:normal;font-feature-settings:normal;text-align:start;writing-mode:lr-tb;text-anchor:start;fill:#ef6a35;fill-opacity:0.98823529;stroke:none;stroke-width:0.26499999;stroke-miterlimit:4;stroke-dasharray:none;stroke-opacity:1"
         id="path4532" />
      <path
         inkscape:connector-curvature="0"
         d="m 118.8076,128.00291 v 4.19947 H 98.194086 q -5.441244,0 -5.441244,-4.42525 v -9.23431 q 0,-4.40266 5.441244,-4.40266 h 20.545774 v 4.19946 H 98.194086 q -1.016,0 -1.016,0.88054 v 7.87964 q 0,0.90311 1.016,0.90311 z"
         style="font-style:normal;font-variant:normal;font-weight:normal;font-stretch:normal;font-size:22.57777786px;font-family:Korataki;-inkscape-font-specification:'Korataki, Normal';font-variant-ligatures:normal;font-variant-caps:normal;font-variant-numeric:normal;font-feature-settings:normal;text-align:start;writing-mode:lr-tb;text-anchor:start;fill:#ef6a35;fill-opacity:0.98823529;stroke:none;stroke-width:0.26499999;stroke-miterlimit:4;stroke-dasharray:none;stroke-opacity:1"
         id="path4534" />
      <g
         aria-label="LINEUP"
         style="font-style:normal;font-variant:normal;font-weight:normal;font-stretch:normal;font-size:22.9401741px;line-height:15.3617239px;font-family:Korataki;-inkscape-font-specification:'Korataki, Normal';font-variant-ligatures:normal;font-variant-caps:normal;font-variant-numeric:normal;font-feature-settings:normal;text-align:start;letter-spacing:0px;word-spacing:0px;writing-mode:lr-tb;text-anchor:start;fill:#ef6a35;fill-opacity:0.98823529;stroke:none;stroke-width:0.61446893px;stroke-linecap:butt;stroke-linejoin:miter;stroke-opacity:1"
         id="text833"
         transform="matrix(0.98011617,0,0,0.98011617,2.2718022,2.4505569)">
        <path
           d="m 137.92594,132.29732 q -5.52858,0 -5.52858,-4.4504 v -13.90174 h 4.49627 v 13.21354 q 0,0.87173 1.03231,0.87173 h 20.00383 v 4.26687 z"
           style="font-style:normal;font-variant:normal;font-weight:normal;font-stretch:normal;font-size:22.9401741px;font-family:Korataki;-inkscape-font-specification:'Korataki, Normal';font-variant-ligatures:normal;font-variant-caps:normal;font-variant-numeric:normal;font-feature-settings:normal;text-align:start;writing-mode:lr-tb;text-anchor:start;fill:#ef6a35;fill-opacity:0.98823529;stroke-width:0.61446893px"
           id="path837"
           inkscape:connector-curvature="0" />
        <path
           d="m 159.76496,113.94518 h 4.47334 v 18.35214 h -4.47334 z"
           style="font-style:normal;font-variant:normal;font-weight:normal;font-stretch:normal;font-size:22.9401741px;font-family:Korataki;-inkscape-font-specification:'Korataki, Normal';font-variant-ligatures:normal;font-variant-caps:normal;font-variant-numeric:normal;font-feature-settings:normal;text-align:start;writing-mode:lr-tb;text-anchor:start;fill:#ef6a35;fill-opacity:0.98823529;stroke-width:0.61446893px"
           id="path839"
           inkscape:connector-curvature="0" />
        <path
           d="m 173.73548,119.58846 q -0.48174,-0.5735 -1.19288,-0.96349 -0.68821,-0.41292 -1.42229,-0.41292 h -0.22941 v 14.08527 h -4.35863 v -18.35214 h 4.58804 q 1.83521,0 3.07398,0.59644 1.26171,0.59645 2.40872,1.8811 l 8.87784,10.23131 q 0.48175,0.55057 1.16995,0.96349 0.68821,0.41293 1.42229,0.41293 h 0.22941 v -14.08527 h 4.38157 v 18.35214 h -4.61098 q -1.90403,0 -3.23456,-0.61939 -1.30759,-0.61938 -2.43166,-1.97285 z"
           style="font-style:normal;font-variant:normal;font-weight:normal;font-stretch:normal;font-size:22.9401741px;font-family:Korataki;-inkscape-font-specification:'Korataki, Normal';font-variant-ligatures:normal;font-variant-caps:normal;font-variant-numeric:normal;font-feature-settings:normal;text-align:start;writing-mode:lr-tb;text-anchor:start;fill:#ef6a35;fill-opacity:0.98823529;stroke-width:0.61446893px"
           id="path841"
           inkscape:connector-curvature="0" />
        <path
           d="m 220.76283,128.03045 v 4.26687 h -20.25617 q -5.52858,0 -5.52858,-4.49628 v -9.38253 q 0,-4.47333 5.52858,-4.47333 h 20.18735 v 4.26687 h -20.18735 q -1.03231,0 -1.03231,0.89467 v 1.85815 h 21.08202 v 4.26687 h -21.08202 v 1.8811 q 0,0.91761 1.03231,0.91761 z"
           style="font-style:normal;font-variant:normal;font-weight:normal;font-stretch:normal;font-size:22.9401741px;font-family:Korataki;-inkscape-font-specification:'Korataki, Normal';font-variant-ligatures:normal;font-variant-caps:normal;font-variant-numeric:normal;font-feature-settings:normal;text-align:start;writing-mode:lr-tb;text-anchor:start;fill:#ef6a35;fill-opacity:0.98823529;stroke-width:0.61446893px"
           id="path843"
           inkscape:connector-curvature="0" />
        <path
           d="m 244.52884,128.03045 q 1.03231,0 1.03231,-0.64233 v -13.44294 h 4.49627 v 13.90174 q 0,4.4504 -5.52858,4.4504 h -16.104 q -5.52859,0 -5.52859,-4.49628 v -13.85586 h 4.47334 v 13.39706 q 0,0.68821 1.05525,0.68821 z"
           style="font-style:normal;font-variant:normal;font-weight:normal;font-stretch:normal;font-size:22.9401741px;font-family:Korataki;-inkscape-font-specification:'Korataki, Normal';font-variant-ligatures:normal;font-variant-caps:normal;font-variant-numeric:normal;font-feature-settings:normal;text-align:start;writing-mode:lr-tb;text-anchor:start;fill:#ef6a35;fill-opacity:0.98823529;stroke-width:0.61446893px"
           id="path845"
           inkscape:connector-curvature="0" />
        <path
           d="m 256.82473,125.66761 v 6.62971 h -4.47333 v -18.35214 h 19.33857 q 5.52858,0 5.52858,4.47333 v 2.77576 q 0,4.47334 -5.52858,4.47334 z m 0,-7.45556 v 3.18868 h 14.86524 q 1.0323,0 1.0323,-0.66526 v -1.85815 q 0,-0.66527 -1.0323,-0.66527 z"
           style="font-style:normal;font-variant:normal;font-weight:normal;font-stretch:normal;font-size:22.9401741px;font-family:Korataki;-inkscape-font-specification:'Korataki, Normal';font-variant-ligatures:normal;font-variant-caps:normal;font-variant-numeric:normal;font-feature-settings:normal;text-align:start;writing-mode:lr-tb;text-anchor:start;fill:#ef6a35;fill-opacity:0.98823529;stroke-width:0.61446893px"
           id="path847"
           inkscape:connector-curvature="0" />
      </g>
    </g>
  </g>
</svg>
