<?xml version="1.0" encoding="UTF-8" standalone="no"?>
<!-- Created with Inkscape (http://www.inkscape.org/) -->

<svg
   xmlns:dc="http://purl.org/dc/elements/1.1/"
   xmlns:cc="http://creativecommons.org/ns#"
   xmlns:rdf="http://www.w3.org/1999/02/22-rdf-syntax-ns#"
   xmlns:svg="http://www.w3.org/2000/svg"
   xmlns="http://www.w3.org/2000/svg"
   xmlns:sodipodi="http://sodipodi.sourceforge.net/DTD/sodipodi-0.dtd"
   xmlns:inkscape="http://www.inkscape.org/namespaces/inkscape"
   width="600"
   height="30"
   viewBox="0 0 600 30"
   version="1.1"
   id="SVGRoot"
   inkscape:version="0.92.4 5da689c313, 2019-01-14"
   sodipodi:docname="sv-title.svg">
  <defs
     id="defs1387" />
  <sodipodi:namedview
     id="base"
     pagecolor="#ffffff"
     bordercolor="#666666"
     borderopacity="1.0"
     inkscape:pageopacity="0.0"
     inkscape:pageshadow="2"
     inkscape:zoom="3.4133333"
     inkscape:cx="341.37766"
     inkscape:cy="27.29561"
     inkscape:document-units="px"
     inkscape:current-layer="layer1"
     showgrid="false"
     inkscape:window-width="3200"
     inkscape:window-height="1672"
     inkscape:window-x="0"
     inkscape:window-y="54"
     inkscape:window-maximized="1"
     fit-margin-top="0"
     fit-margin-left="0"
     fit-margin-right="0"
     fit-margin-bottom="0" />
  <metadata
     id="metadata1390">
    <rdf:RDF>
      <cc:Work
         rdf:about="">
        <dc:format>image/svg+xml</dc:format>
        <dc:type
           rdf:resource="http://purl.org/dc/dcmitype/StillImage" />
        <dc:title></dc:title>
      </cc:Work>
    </rdf:RDF>
  </metadata>
  <g
     inkscape:label="Layer 1"
     inkscape:groupmode="layer"
     id="layer1"
     transform="translate(-0.23762348,-2.8873517)">
    <g
       transform="matrix(1.6274215,0,0,1.6274215,0.08499095,-182.57491)"
       aria-label="SONIC VISUALISER"
       style="font-style:normal;font-variant:normal;font-weight:normal;font-stretch:normal;font-size:22.57777786px;line-height:125%;font-family:Korataki;-inkscape-font-specification:'Korataki, Normal';font-variant-ligatures:normal;font-variant-caps:normal;font-variant-numeric:normal;font-feature-settings:normal;text-align:start;letter-spacing:0px;word-spacing:0px;writing-mode:lr-tb;text-anchor:start;fill:#ef6a35;fill-opacity:0.98823529;stroke:none;stroke-width:0.26499999;stroke-linecap:butt;stroke-linejoin:miter;stroke-miterlimit:4;stroke-dasharray:none;stroke-opacity:1"
       id="text4524">
      <path
         inkscape:connector-curvature="0"
         d="m 25.516215,114.14016 v 4.19946 H 5.5800375 q -1.0385778,0 -1.0385778,0.65476 v 1.39982 q 0,0.65476 1.0385778,0.65476 H 20.661993 q 5.418667,0 5.418667,4.31235 v 2.46098 q 0,4.38009 -5.418667,4.38009 H 0.72581523 v -4.19947 H 20.661993 q 1.016,0 1.016,-0.63218 v -1.46755 q 0,-0.65476 -1.016,-0.65476 H 5.5800375 q -5.44124449,0 -5.44124449,-3.8608 v -2.8448 q 0,-4.40266 5.44124449,-4.40266 z"
         style="font-style:normal;font-variant:normal;font-weight:normal;font-stretch:normal;font-size:22.57777786px;font-family:Korataki;-inkscape-font-specification:'Korataki, Normal';font-variant-ligatures:normal;font-variant-caps:normal;font-variant-numeric:normal;font-feature-settings:normal;text-align:start;writing-mode:lr-tb;text-anchor:start;fill:#ef6a35;fill-opacity:0.98823529;stroke:none;stroke-width:0.26499999;stroke-miterlimit:4;stroke-dasharray:none;stroke-opacity:1"
         id="path4526" />
      <path
         inkscape:connector-curvature="0"
         d="m 35.089212,132.20238 q -6.795911,0 -6.795911,-5.73476 v -6.57013 q 0,-5.75733 6.795911,-5.75733 h 13.953067 q 6.795911,0 6.795911,5.75733 v 6.57013 q 0,5.73476 -6.795911,5.73476 z m 0,-13.86276 q -2.370667,0 -2.370667,1.55787 v 6.57013 q 0,1.53529 2.370667,1.53529 h 13.953067 q 2.370666,0 2.370666,-1.53529 v -6.57013 q 0,-1.55787 -2.370666,-1.55787 z"
         style="font-style:normal;font-variant:normal;font-weight:normal;font-stretch:normal;font-size:22.57777786px;font-family:Korataki;-inkscape-font-specification:'Korataki, Normal';font-variant-ligatures:normal;font-variant-caps:normal;font-variant-numeric:normal;font-feature-settings:normal;text-align:start;writing-mode:lr-tb;text-anchor:start;fill:#ef6a35;fill-opacity:0.98823529;stroke:none;stroke-width:0.26499999;stroke-miterlimit:4;stroke-dasharray:none;stroke-opacity:1"
         id="path4528" />
      <path
         inkscape:connector-curvature="0"
         d="m 65.185381,119.69429 q -0.474133,-0.56445 -1.174044,-0.94827 -0.677334,-0.4064 -1.399823,-0.4064 h -0.225777 v 13.86276 h -4.289778 v -18.06222 h 4.515555 q 1.806223,0 3.025423,0.58702 1.241777,0.58702 2.370666,1.85138 l 8.7376,10.06968 q 0.474134,0.54187 1.151467,0.94827 0.677333,0.4064 1.399822,0.4064 h 0.225778 v -13.86275 h 4.312356 v 18.06222 h -4.538134 q -1.873955,0 -3.183467,-0.6096 -1.286933,-0.6096 -2.393244,-1.94169 z"
         style="font-style:normal;font-variant:normal;font-weight:normal;font-stretch:normal;font-size:22.57777786px;font-family:Korataki;-inkscape-font-specification:'Korataki, Normal';font-variant-ligatures:normal;font-variant-caps:normal;font-variant-numeric:normal;font-feature-settings:normal;text-align:start;writing-mode:lr-tb;text-anchor:start;fill:#ef6a35;fill-opacity:0.98823529;stroke:none;stroke-width:0.26499999;stroke-miterlimit:4;stroke-dasharray:none;stroke-opacity:1"
         id="path4530" />
      <path
         inkscape:connector-curvature="0"
         d="m 86.092396,114.14016 h 4.402667 v 18.06222 h -4.402667 z"
         style="font-style:normal;font-variant:normal;font-weight:normal;font-stretch:normal;font-size:22.57777786px;font-family:Korataki;-inkscape-font-specification:'Korataki, Normal';font-variant-ligatures:normal;font-variant-caps:normal;font-variant-numeric:normal;font-feature-settings:normal;text-align:start;writing-mode:lr-tb;text-anchor:start;fill:#ef6a35;fill-opacity:0.98823529;stroke:none;stroke-width:0.26499999;stroke-miterlimit:4;stroke-dasharray:none;stroke-opacity:1"
         id="path4532" />
      <path
         inkscape:connector-curvature="0"
         d="m 118.8076,128.00291 v 4.19947 H 98.194086 q -5.441244,0 -5.441244,-4.42525 v -9.23431 q 0,-4.40266 5.441244,-4.40266 h 20.545774 v 4.19946 H 98.194086 q -1.016,0 -1.016,0.88054 v 7.87964 q 0,0.90311 1.016,0.90311 z"
         style="font-style:normal;font-variant:normal;font-weight:normal;font-stretch:normal;font-size:22.57777786px;font-family:Korataki;-inkscape-font-specification:'Korataki, Normal';font-variant-ligatures:normal;font-variant-caps:normal;font-variant-numeric:normal;font-feature-settings:normal;text-align:start;writing-mode:lr-tb;text-anchor:start;fill:#ef6a35;fill-opacity:0.98823529;stroke:none;stroke-width:0.26499999;stroke-miterlimit:4;stroke-dasharray:none;stroke-opacity:1"
         id="path4534" />
      <path
         inkscape:connector-curvature="0"
         d="m 143.41738,127.14496 q 0.47414,0.85795 1.19662,0.85795 h 1.2192 q 0.31609,0 0.6096,-0.18062 0.31609,-0.2032 0.56445,-0.65476 l 7.45067,-13.02737 h 5.08 l -9.43752,16.54951 q -0.88053,1.51271 -2.75448,1.51271 h -4.2672 q -1.08374,0 -1.67076,-0.38382 -0.56444,-0.38383 -0.97084,-1.15147 l -9.46009,-16.52693 h 5.10257 z"
         style="font-style:normal;font-variant:normal;font-weight:normal;font-stretch:normal;font-size:22.57777786px;font-family:Korataki;-inkscape-font-specification:'Korataki, Normal';font-variant-ligatures:normal;font-variant-caps:normal;font-variant-numeric:normal;font-feature-settings:normal;text-align:start;writing-mode:lr-tb;text-anchor:start;fill:#ef6a35;fill-opacity:0.98823529;stroke:none;stroke-width:0.26499999;stroke-miterlimit:4;stroke-dasharray:none;stroke-opacity:1"
         id="path4536" />
      <path
         inkscape:connector-curvature="0"
         d="m 160.66678,114.14016 h 4.40267 v 18.06222 h -4.40267 z"
         style="font-style:normal;font-variant:normal;font-weight:normal;font-stretch:normal;font-size:22.57777786px;font-family:Korataki;-inkscape-font-specification:'Korataki, Normal';font-variant-ligatures:normal;font-variant-caps:normal;font-variant-numeric:normal;font-feature-settings:normal;text-align:start;writing-mode:lr-tb;text-anchor:start;fill:#ef6a35;fill-opacity:0.98823529;stroke:none;stroke-width:0.26499999;stroke-miterlimit:4;stroke-dasharray:none;stroke-opacity:1"
         id="path4538" />
      <path
         inkscape:connector-curvature="0"
         d="m 192.6595,114.14016 v 4.19946 h -19.93618 q -1.03858,0 -1.03858,0.65476 v 1.39982 q 0,0.65476 1.03858,0.65476 h 15.08195 q 5.41867,0 5.41867,4.31235 v 2.46098 q 0,4.38009 -5.41867,4.38009 H 167.8691 v -4.19947 h 19.93617 q 1.016,0 1.016,-0.63218 v -1.46755 q 0,-0.65476 -1.016,-0.65476 h -15.08195 q -5.44125,0 -5.44125,-3.8608 v -2.8448 q 0,-4.40266 5.44125,-4.40266 z"
         style="font-style:normal;font-variant:normal;font-weight:normal;font-stretch:normal;font-size:22.57777786px;font-family:Korataki;-inkscape-font-specification:'Korataki, Normal';font-variant-ligatures:normal;font-variant-caps:normal;font-variant-numeric:normal;font-feature-settings:normal;text-align:start;writing-mode:lr-tb;text-anchor:start;fill:#ef6a35;fill-opacity:0.98823529;stroke:none;stroke-width:0.26499999;stroke-miterlimit:4;stroke-dasharray:none;stroke-opacity:1"
         id="path4540" />
      <path
         inkscape:connector-curvature="0"
         d="m 216.72743,128.00291 q 1.016,0 1.016,-0.63218 v -13.23057 h 4.42525 v 13.68213 q 0,4.38009 -5.44125,4.38009 h -15.8496 q -5.44124,0 -5.44124,-4.42525 v -13.63697 h 4.40267 v 13.18542 q 0,0.67733 1.03857,0.67733 z"
         style="font-style:normal;font-variant:normal;font-weight:normal;font-stretch:normal;font-size:22.57777786px;font-family:Korataki;-inkscape-font-specification:'Korataki, Normal';font-variant-ligatures:normal;font-variant-caps:normal;font-variant-numeric:normal;font-feature-settings:normal;text-align:start;writing-mode:lr-tb;text-anchor:start;fill:#ef6a35;fill-opacity:0.98823529;stroke:none;stroke-width:0.26499999;stroke-miterlimit:4;stroke-dasharray:none;stroke-opacity:1"
         id="path4542" />
      <path
         inkscape:connector-curvature="0"
         d="m 244.56585,128.65767 h -14.65298 l -1.98685,3.54471 h -5.10257 l 9.46009,-16.52694 q 0.4064,-0.76764 0.97084,-1.15146 0.58702,-0.38382 1.67076,-0.38382 h 4.56071 q 1.87395,0 2.75449,1.51271 l 9.43751,16.54951 h -5.08 z m -12.50809,-3.97369 h 10.34062 l -3.13831,-5.50898 q -0.24836,-0.45156 -0.56445,-0.63218 -0.29351,-0.2032 -0.6096,-0.2032 h -1.73848 q -0.72249,0 -1.19663,0.85796 z"
         style="font-style:normal;font-variant:normal;font-weight:normal;font-stretch:normal;font-size:22.57777786px;font-family:Korataki;-inkscape-font-specification:'Korataki, Normal';font-variant-ligatures:normal;font-variant-caps:normal;font-variant-numeric:normal;font-feature-settings:normal;text-align:start;writing-mode:lr-tb;text-anchor:start;fill:#ef6a35;fill-opacity:0.98823529;stroke:none;stroke-width:0.26499999;stroke-miterlimit:4;stroke-dasharray:none;stroke-opacity:1"
         id="path4544" />
      <path
         inkscape:connector-curvature="0"
         d="m 257.29971,132.20238 q -5.44125,0 -5.44125,-4.38009 v -13.68213 h 4.42525 v 13.0048 q 0,0.85795 1.016,0.85795 h 19.68782 v 4.19947 z"
         style="font-style:normal;font-variant:normal;font-weight:normal;font-stretch:normal;font-size:22.57777786px;font-family:Korataki;-inkscape-font-specification:'Korataki, Normal';font-variant-ligatures:normal;font-variant-caps:normal;font-variant-numeric:normal;font-feature-settings:normal;text-align:start;writing-mode:lr-tb;text-anchor:start;fill:#ef6a35;fill-opacity:0.98823529;stroke:none;stroke-width:0.26499999;stroke-miterlimit:4;stroke-dasharray:none;stroke-opacity:1"
         id="path4546" />
      <path
         inkscape:connector-curvature="0"
         d="m 278.79378,114.14016 h 4.40267 v 18.06222 h -4.40267 z"
         style="font-style:normal;font-variant:normal;font-weight:normal;font-stretch:normal;font-size:22.57777786px;font-family:Korataki;-inkscape-font-specification:'Korataki, Normal';font-variant-ligatures:normal;font-variant-caps:normal;font-variant-numeric:normal;font-feature-settings:normal;text-align:start;writing-mode:lr-tb;text-anchor:start;fill:#ef6a35;fill-opacity:0.98823529;stroke:none;stroke-width:0.26499999;stroke-miterlimit:4;stroke-dasharray:none;stroke-opacity:1"
         id="path4548" />
      <path
         inkscape:connector-curvature="0"
         d="m 310.78648,114.14016 v 4.19946 H 290.8503 q -1.03858,0 -1.03858,0.65476 v 1.39982 q 0,0.65476 1.03858,0.65476 h 15.08196 q 5.41866,0 5.41866,4.31235 v 2.46098 q 0,4.38009 -5.41866,4.38009 h -19.93618 v -4.19947 h 19.93618 q 1.016,0 1.016,-0.63218 v -1.46755 q 0,-0.65476 -1.016,-0.65476 H 290.8503 q -5.44124,0 -5.44124,-3.8608 v -2.8448 q 0,-4.40266 5.44124,-4.40266 z"
         style="font-style:normal;font-variant:normal;font-weight:normal;font-stretch:normal;font-size:22.57777786px;font-family:Korataki;-inkscape-font-specification:'Korataki, Normal';font-variant-ligatures:normal;font-variant-caps:normal;font-variant-numeric:normal;font-feature-settings:normal;text-align:start;writing-mode:lr-tb;text-anchor:start;fill:#ef6a35;fill-opacity:0.98823529;stroke:none;stroke-width:0.26499999;stroke-miterlimit:4;stroke-dasharray:none;stroke-opacity:1"
         id="path4550" />
      <path
         inkscape:connector-curvature="0"
         d="m 338.94101,128.00291 v 4.19947 h -19.93618 q -5.44124,0 -5.44124,-4.42525 v -9.23431 q 0,-4.40266 5.44124,-4.40266 h 19.86845 v 4.19946 h -19.86845 q -1.016,0 -1.016,0.88054 v 1.8288 h 20.74898 v 4.19946 h -20.74898 v 1.85138 q 0,0.90311 1.016,0.90311 z"
         style="font-style:normal;font-variant:normal;font-weight:normal;font-stretch:normal;font-size:22.57777786px;font-family:Korataki;-inkscape-font-specification:'Korataki, Normal';font-variant-ligatures:normal;font-variant-caps:normal;font-variant-numeric:normal;font-feature-settings:normal;text-align:start;writing-mode:lr-tb;text-anchor:start;fill:#ef6a35;fill-opacity:0.98823529;stroke:none;stroke-width:0.26499999;stroke-miterlimit:4;stroke-dasharray:none;stroke-opacity:1"
         id="path4552" />
      <path
         inkscape:connector-curvature="0"
         d="m 341.0407,114.14016 h 21.7424 q 5.21547,0 5.21547,4.40266 v 1.6256 q 0,4.58329 -5.21547,4.58329 h -1.51271 l 7.47324,7.45067 h -6.096 l -7.02169,-7.22489 h -10.18257 v 7.22489 h -4.40267 z m 4.40267,4.19946 v 2.86738 h 17.4752 q 0.88053,0 0.88053,-0.72249 v -1.44498 q 0,-0.69991 -1.016,-0.69991 z"
         style="font-style:normal;font-variant:normal;font-weight:normal;font-stretch:normal;font-size:22.57777786px;font-family:Korataki;-inkscape-font-specification:'Korataki, Normal';font-variant-ligatures:normal;font-variant-caps:normal;font-variant-numeric:normal;font-feature-settings:normal;text-align:start;writing-mode:lr-tb;text-anchor:start;fill:#ef6a35;fill-opacity:0.98823529;stroke:none;stroke-width:0.26499999;stroke-miterlimit:4;stroke-dasharray:none;stroke-opacity:1"
         id="path4554" />
    </g>
  </g>
</svg>
